<svg version="1.0" xmlns="http://www.w3.org/2000/svg"
 width="16.000000pt" height="16.000000pt" viewBox="0 0 16.000000 16.000000"
 preserveAspectRatio="xMidYMid meet">

<g transform="translate(0.000000,16.000000) scale(0.100000,-0.100000)"
fill="#b22cb0" stroke="red">
<path d="M43 148 c-27 -13 -47 -59 -38 -88 19 -60 85 -77 129 -34 41 42 32 94
-21 122 -26 14 -41 14 -70 0z m48 -47 c-9 -6 -10 -11 -2 -15 20 -12 12 -36
-11 -36 -19 0 -20 2 -8 11 11 8 12 12 3 16 -22 8 -14 33 10 33 16 0 18 -3 8
-9z"/>
</g>
</svg>
